<svg width="80" height="81" viewBox="0 0 80 81" fill="none" xmlns="http://www.w3.org/2000/svg"><g clip-path="url(#clip0)"><path d="M58.41 51.65a3.334 3.334 0 01-3.33-3.33 3.333 3.333 0 013.33-3.33 3.333 3.333 0 013.331 3.33 3.334 3.334 0 01-3.33 3.33zm-36.82 0a3.334 3.334 0 01-3.331-3.33 3.333 3.333 0 013.33-3.33 3.333 3.333 0 013.332 3.33 3.334 3.334 0 01-3.331 3.33zm38.015-20.052l6.658-11.523a1.385 1.385 0 00-2.4-1.384l-6.74 11.668C51.967 28.01 46.178 26.7 40 26.7c-6.178 0-11.967 1.31-17.122 3.66l-6.742-11.668a1.387 1.387 0 00-2.537.334c-.095.355-.045.732.138 1.05l6.658 11.523C8.963 37.81 1.144 49.376 0 63.039h80c-1.145-13.663-8.964-25.228-20.395-31.442" fill="#3DDB85"/></g><defs><clipPath id="clip0"><path fill="#fff" transform="translate(0 .63)" d="M0 0h80v80H0z"/></clipPath></defs></svg>