<svg width="80" height="81" viewBox="0 0 80 81" fill="none" xmlns="http://www.w3.org/2000/svg"><path d="M59.444 43.389c-.081-8.97 7.374-13.334 7.715-13.537-4.223-6.131-10.767-6.969-13.067-7.036-5.496-.576-10.828 3.276-13.628 3.276-2.855 0-7.167-3.22-11.814-3.125-5.98.091-11.574 3.54-14.643 8.894-6.332 10.918-1.61 26.962 4.457 35.787 3.035 4.323 6.581 9.148 11.223 8.978 4.54-.186 6.236-2.883 11.716-2.883 5.43 0 7.022 2.883 11.756 2.775 4.873-.078 7.942-4.342 10.87-8.703 3.507-4.953 4.915-9.832 4.971-10.083-.114-.039-9.464-3.593-9.556-14.343zM50.502 17.01c2.442-3.041 4.113-7.18 3.65-11.38-3.536.157-7.956 2.436-10.502 5.411-2.252 2.622-4.264 6.919-3.745 10.96 3.971.295 8.048-1.996 10.597-4.99z" fill="#A4AEC0"/></svg>