<svg width="80" height="81" viewBox="0 0 80 81" fill="none" xmlns="http://www.w3.org/2000/svg"><g clip-path="url(#clip0)"><g clip-path="url(#clip1)"><path d="M40.285 80.285C61.982 80.285 79.57 62.696 79.57 41c0-21.697-17.588-39.285-39.285-39.285C18.589 1.715 1 19.303 1 41c0 21.696 17.588 39.285 39.285 39.285z" fill="url(#paint0_linear)"/><path d="M67.742 46.708c-3.395 1.31-6.636 2.562-9.88 3.811-4.925 1.897-9.857 3.78-14.774 5.7-.653.256-1.008.17-1.434-.41-1.72-2.336-3.5-4.626-5.35-7.052l25.52-11.905c1.97 3.276 3.91 6.508 5.918 9.856z" fill="#fff"/><path d="M36.402 68.23V52.434c1.041 1.257 1.928 2.324 2.81 3.394.681.824 1.395 1.628 2.026 2.49.38.52.723.553 1.3.325 6.045-2.388 12.1-4.746 18.152-7.11.333-.13.671-.244 1.151-.42 0 1.967.019 3.794-.005 5.618-.028 2.143.344 1.593-1.624 2.357-7.597 2.94-15.203 5.851-22.808 8.774-.305.116-.612.226-1.002.37zm-2.011-20.135v20.1c-.336-.185-.6-.313-.848-.47-4.69-2.928-9.373-5.867-14.077-8.776-.563-.347-.776-.732-.767-1.392.039-2.533.015-5.068.015-7.89 1.069.916 2.02 1.614 2.823 2.45.775.808 1.454.869 2.467.409 3.14-1.424 6.333-2.728 9.508-4.076.25-.105.502-.203.88-.355z" fill="#fff"/><path d="M9.01 38.776c2.536-1.902 4.965-3.747 7.436-5.537.176-.126.734.058.971.264 3.607 3.12 7.189 6.268 10.777 9.41l4.305 3.77c-.424.18-.72.312-1.018.433-2.689 1.082-5.384 2.147-8.062 3.252-.557.23-.914.157-1.37-.25-3.86-3.434-7.742-6.84-11.627-10.247-.41-.36-.863-.672-1.411-1.095zm7.598-8.03l-3.79-7.569c8.348-2.57 16.627-5.12 24.907-7.667l.08.171c-1.046.572-2.043 1.28-3.152 1.685-1.845.672-2.43 1.853-2.21 3.75.172 1.478.024 2.992.017 4.49 0 .056-.037.113-.096.29-.268-.105-.537-.193-.792-.313-1.466-.682-2.918-1.396-4.402-2.038-.34-.147-.835-.175-1.178-.044-2.873 1.107-5.724 2.271-8.59 3.4-.425.166-.614.378-.594.86.04.973.011 1.95.011 2.925-.072.022-.141.04-.211.06z" fill="#fff"/><path d="M18.81 28.032c2.507-.943 4.95-1.872 7.401-2.772.229-.083.554-.053.784.044 4.317 1.836 8.627 3.69 12.937 5.544.075.034.134.102.309.236-1.03.412-1.985.79-2.94 1.174-2.063.827-4.12 1.671-6.195 2.472-.298.116-.75.154-1.006.009-3.677-2.108-7.332-4.253-10.99-6.394-.096-.057-.16-.166-.3-.313zm42.97 1.038c-.3.178-.494.306-.7.41-3.464 1.736-6.926 3.48-10.406 5.183-.32.157-.84.175-1.155.024-2.231-1.065-4.433-2.189-6.642-3.298-.186-.094-.353-.219-.598-.372.294-.17.517-.314.75-.432 3.41-1.707 6.83-3.401 10.231-5.128.52-.263.928-.269 1.446 0 2.086 1.08 4.196 2.113 6.297 3.169.231.116.452.258.778.443zm-11.632-9.79c-1.128.568-2.099 1.06-3.074 1.548-1.418.71-2.829 1.437-4.263 2.112-.285.134-.73.195-.996.066-2.336-1.125-4.646-2.299-6.964-3.463-.127-.065-.23-.173-.414-.315 2.522-1.264 4.969-2.498 7.428-3.71.19-.094.499-.116.68-.026 2.488 1.22 4.96 2.465 7.603 3.788zM30.415 42.76c3.303-1.319 6.414-2.566 9.532-3.796.178-.07.437-.083.606-.008 1.996.902 3.981 1.825 6.119 2.811-.405.223-.652.373-.911.497-2.892 1.377-5.794 2.735-8.673 4.142-.543.265-.918.23-1.402-.107-1.677-1.162-3.386-2.279-5.271-3.539z" fill="#fff"/><path d="M67.739 25.13c-1.297 2.595-2.542 5.093-3.79 7.589l-.207-.019c0-1.282-.04-2.566.018-3.846.028-.622-.204-.907-.734-1.166-3.392-1.667-6.76-3.381-10.156-5.038-.662-.324-.97-.705-.886-1.455.068-.596.013-1.207.013-1.965 5.3 1.985 10.472 3.924 15.742 5.9zm-5.909 5.985c0 1.214.015 2.393-.016 3.572-.004.162-.197.384-.359.465-3.74 1.87-7.488 3.723-11.235 5.578-.02.009-.057-.015-.206-.061 0-1.137-.019-2.314.02-3.488.006-.178.245-.417.436-.513 3.655-1.84 7.317-3.662 10.982-5.483.071-.039.169-.034.378-.07zm-21.523 1.819c0 1.299.02 2.425-.018 3.548-.008.21-.208.523-.398.6-3.07 1.255-6.153 2.478-9.414 3.78 0-1.33-.015-2.53.018-3.727.004-.145.232-.35.4-.417 3.072-1.247 6.15-2.478 9.412-3.784zM18.83 30.06c2.003 1.248 3.888 2.424 5.776 3.599.388.243.78.482 1.164.732.918.598 1.83 1.201 2.746 1.8v4.644c-.769-.685-1.423-1.259-2.07-1.84-2.249-2.025-4.45-4.107-6.768-6.05-.959-.804-1.108-1.65-.848-2.886zm23.385-.936c0-1.348-.013-2.5.014-3.65.004-.17.16-.413.313-.49 2.434-1.242 4.88-2.461 7.521-3.786 0 1.389.008 2.612-.012 3.834-.002.11-.168.257-.291.32-2.443 1.229-4.89 2.446-7.545 3.772zm-7.836-7.944c1.997 1.008 3.82 1.918 5.626 2.862.16.083.285.386.29.59.023 1.435.012 2.868.012 4.489-.916-.462-1.722-.858-2.52-1.27-1.111-.572-2.652-.892-3.2-1.806-.57-.951-.18-2.481-.209-3.758-.005-.3 0-.601 0-1.107zm7.831 11.747c2.032 1.019 3.855 1.928 5.666 2.856.133.069.273.278.275.423.02 1.332.012 2.666.012 4.187-2.003-1.002-3.85-1.92-5.683-2.864-.142-.074-.254-.346-.256-.528-.024-1.28-.013-2.56-.013-4.074z" fill="#fff"/></g></g><defs><clipPath id="clip0"><path fill="#fff" transform="translate(0 .63)" d="M0 0h80v80H0z"/></clipPath><clipPath id="clip1"><path fill="#fff" transform="translate(1 1.715)" d="M0 0h78.57v78.57H0z"/></clipPath><linearGradient id="paint0_linear" x1="40.285" y1="1.715" x2="40.285" y2="80.285" gradientUnits="userSpaceOnUse"><stop stop-color="#5EA7FC"/><stop offset="1" stop-color="#3B80D1"/></linearGradient></defs></svg>