<svg width="80" height="81" viewBox="0 0 80 81" fill="none" xmlns="http://www.w3.org/2000/svg"><g clip-path="url(#clip0)"><path d="M40 81c22.092 0 40-17.908 40-40C80 18.91 62.093 1 40 1 17.91 1 0 18.909 0 41c0 22.092 17.909 40 40 40z" fill="url(#paint0_linear)"/><path d="M42.664 45.495l-.096-.063V24.135c0-.43 0-.43.433-.431.791 0 1.583.007 2.373-.004.546-.008.795-.42.543-.891-.564-1.051-1.133-2.1-1.708-3.146-.907-1.646-1.822-3.287-2.729-4.934-.138-.25-.312-.438-.613-.431-.29.006-.455.195-.587.435-1.102 2.004-2.208 4.006-3.313 6.009-.376.68-.754 1.36-1.127 2.042-.258.47-.018.89.516.918.085.004.171.002.257.002h2.173c.39.001.39.005.393.404V57.22c0 .067-.006.134 0 .2.017.18-.063.27-.229.342-1.565.68-2.61 1.825-3.05 3.49-.383 1.458-.155 2.834.664 4.09.744 1.14 1.791 1.864 3.126 2.2.906.228 1.802.221 2.664-.065 1.873-.621 3.102-1.875 3.547-3.841.192-.843.185-1.69-.059-2.505-.474-1.577-1.48-2.714-3.011-3.355-.213-.09-.27-.206-.268-.427.01-1.477-.004-2.955.01-4.433.005-.539.03-1.082.11-1.614a3.643 3.643 0 01.965-1.964c.623-.664 1.28-1.296 1.921-1.94 2.178-2.19 4.366-4.37 6.53-6.573.936-.952 1.477-2.102 1.518-3.46.01-.32.04-.638.063-.975.63 0 1.239.002 1.847 0 .406-.002.61-.188.611-.581.004-2.478.004-4.957 0-7.434-.001-.39-.188-.576-.584-.576-2.45-.004-4.899-.005-7.348 0-.43 0-.634.203-.635.634a1860.4 1860.4 0 000 7.32c.002.436.221.636.659.637.591 0 1.182-.006 1.772.006.088.002.246.079.252.132.06.663-.018 1.295-.517 1.801-.8.81-1.597 1.622-2.399 2.43-1.197 1.206-2.4 2.406-3.596 3.612-.366.369-.719.75-1.078 1.126zm-6.001-14.222c0-.666.002-1.334 0-2-.002-.43-.26-.672-.688-.634-.264.023-.53.055-.79.11-.896.19-1.796.366-2.681.598a38.6 38.6 0 00-2.853.848c-1.55.532-3.05 1.19-4.5 1.96-1.856.987-3.617 2.116-5.253 3.438-.403.325-.422.616-.063.974.941.94 1.886 1.878 2.832 2.815.256.253.465.276.765.083.143-.093.269-.211.407-.311 1.547-1.124 3.163-2.129 4.896-2.942a28.13 28.13 0 014.337-1.625c1.004-.282 2.034-.47 3.052-.696.382-.084.538-.262.539-.646.001-.657 0-1.314 0-1.972zm0 9.465c0-.677.002-1.353 0-2.03-.002-.435-.294-.688-.727-.614a7.811 7.811 0 00-.973.212c-.924.282-1.855.549-2.76.887a22.525 22.525 0 00-5.63 3.071c-.375.28-.386.636-.056.962.907.894 1.813 1.79 2.714 2.69.421.42.603.446 1.11.107a19.066 19.066 0 015.73-2.584c.472-.126.592-.278.593-.756l-.001-1.945zm0 9.425c0-.552-.028-1.107.008-1.657.035-.54-.388-.864-.9-.642-.799.346-1.589.72-2.36 1.126-.508.267-.526.645-.112 1.054.764.754 1.535 1.501 2.293 2.261.2.202.411.322.684.206.27-.114.394-.332.39-.634-.01-.571-.003-1.142-.003-1.714z" fill="#fff"/><path d="M42.664 45.495c.358-.375.71-.757 1.076-1.125 1.197-1.207 2.399-2.407 3.597-3.612.801-.808 1.6-1.62 2.398-2.43.498-.506.577-1.137.517-1.801-.005-.053-.163-.13-.252-.132-.59-.012-1.181-.005-1.772-.007-.438 0-.657-.2-.658-.636-.005-2.44-.005-4.88 0-7.32 0-.431.205-.634.634-.635 2.45-.004 4.899-.003 7.348 0 .397.001.583.187.584.576.003 2.478.004 4.957 0 7.435 0 .393-.205.579-.61.58-.61.003-1.218.001-1.848.001-.022.336-.053.655-.063.974-.041 1.358-.582 2.509-1.517 3.461-2.164 2.203-4.353 4.383-6.53 6.572-.643.646-1.3 1.278-1.921 1.94a3.648 3.648 0 00-.966 1.965c-.08.532-.104 1.075-.11 1.614-.014 1.477 0 2.955-.01 4.432-.002.221.055.34.268.428 1.531.64 2.537 1.778 3.011 3.355.245.815.25 1.661.06 2.505-.445 1.965-1.675 3.22-3.548 3.84-.861.287-1.757.294-2.664.066-1.335-.337-2.383-1.06-3.126-2.2-.82-1.256-1.048-2.633-.663-4.09.438-1.664 1.484-2.81 3.05-3.49.165-.072.245-.163.228-.342-.006-.066 0-.133 0-.2V24.108c-.001-.4-.004-.403-.393-.404h-2.173c-.085 0-.171.002-.257-.003-.534-.027-.773-.448-.516-.917.373-.682.751-1.361 1.127-2.042 1.105-2.003 2.21-4.006 3.313-6.01.132-.239.298-.428.587-.434.302-.007.475.18.613.431.907 1.646 1.822 3.288 2.729 4.934a329.135 329.135 0 011.708 3.146c.252.47.003.883-.542.89-.791.012-1.582.004-2.373.005-.434 0-.434 0-.434.43v21.298l.098.063z" fill="#fff"/><path d="M36.663 31.273l-.001 1.972c-.001.384-.157.561-.539.646-1.019.226-2.049.414-3.052.696a28.183 28.183 0 00-4.337 1.625c-1.733.813-3.35 1.818-4.896 2.942-.138.1-.264.218-.408.31-.3.194-.508.17-.764-.083a939.21 939.21 0 01-2.832-2.814c-.359-.358-.34-.65.062-.975 1.636-1.32 3.398-2.45 5.254-3.437a31.11 31.11 0 014.5-1.96 39.382 39.382 0 012.853-.848c.885-.232 1.786-.408 2.681-.598.26-.055.526-.087.79-.11.429-.039.686.203.687.633.003.667.002 1.335.002 2.001zm0 9.465v1.945c0 .477-.12.63-.593.756-2.05.55-3.966 1.4-5.731 2.583-.506.34-.688.314-1.11-.107-.9-.9-1.805-1.795-2.713-2.69-.33-.325-.32-.681.055-.961a22.523 22.523 0 015.631-3.071c.904-.338 1.836-.604 2.76-.887a7.77 7.77 0 01.973-.212c.433-.074.724.179.726.614.003.677.002 1.353.002 2.03zm0 9.425c0 .572-.006 1.143.002 1.714.005.302-.119.52-.389.634-.273.116-.484-.004-.684-.206-.758-.76-1.529-1.507-2.293-2.261-.414-.409-.396-.787.112-1.054a34.7 34.7 0 012.36-1.127c.512-.221.935.102.9.643-.036.55-.008 1.105-.008 1.657z" fill="#fff"/></g><defs><linearGradient id="paint0_linear" x1="40" y1="1" x2="40" y2="81.001" gradientUnits="userSpaceOnUse"><stop stop-color="#FFBF61"/><stop offset="1" stop-color="#F29F25"/></linearGradient><clipPath id="clip0"><path fill="#fff" transform="translate(0 .63)" d="M0 0h80v80H0z"/></clipPath></defs></svg>